<svg width="16" height="17" viewBox="0 0 16 17" fill="none" xmlns="http://www.w3.org/2000/svg">
<path d="M15.11 12.71C15.0552 12.432 14.9363 12.1706 14.7627 11.9466C14.5891 11.7227 14.3656 11.5423 14.11 11.42L11.3 10.13L10.14 9.25C10.1121 9.10852 10.0464 8.97723 9.95 8.87V7.44C10.2333 7.02505 10.4745 6.58286 10.67 6.12C10.8925 5.97534 11.078 5.78061 11.2117 5.5514C11.3454 5.32218 11.4236 5.06485 11.44 4.8C11.44 4.11 11.23 3.95 11.02 3.94C11 3.47 11.24 0 7.71 0C3.92 0 4.46 4 4.46 4C4.26 4 4.04 4.17 4.08 4.8C4.09973 5.0629 4.17827 5.318 4.30981 5.54647C4.44135 5.77495 4.62255 5.97095 4.84 6.12C5.04406 6.57867 5.28484 7.02011 5.56 7.44V8.89C5.46592 8.99107 5.40035 9.1153 5.37 9.25L4.21 10.12V10.17L1.5 11.42C1.24393 11.5417 1.02003 11.7218 0.846336 11.9459C0.672641 12.1699 0.554009 12.4317 0.5 12.71L0 15.15C0 15.15 0.46 16.31 7.8 16.31C15.14 16.31 15.59 15.15 15.59 15.15L15.11 12.71Z" fill="#CCCCCC"/>
</svg>
